<svg width="24" height="25" viewBox="0 0 24 25" fill="none" xmlns="http://www.w3.org/2000/svg">
<path d="M21.97 19.058C21.97 19.418 21.89 19.788 21.72 20.148C21.55 20.508 21.33 20.848 21.04 21.168C20.55 21.708 20.01 22.098 19.4 22.348C18.8 22.598 18.15 22.728 17.45 22.728C16.43 22.728 15.34 22.488 14.19 21.998C13.04 21.508 11.89 20.848 10.75 20.018C9.6 19.178 8.51 18.248 7.47 17.218C6.44 16.178 5.51 15.088 4.68 13.948C3.86 12.808 3.2 11.668 2.72 10.538C2.24 9.39803 2 8.30803 2 7.26803C2 6.58803 2.12 5.93803 2.36 5.33803C2.6 4.72803 2.98 4.16803 3.51 3.66803C4.15 3.03803 4.85 2.72803 5.59 2.72803C5.87 2.72803 6.15 2.78803 6.4 2.90803C6.66 3.02803 6.89 3.20803 7.07 3.46803L9.39 6.73803C9.57 6.98803 9.7 7.21803 9.79 7.43803C9.88 7.64803 9.93 7.85803 9.93 8.04803C9.93 8.28803 9.86 8.52803 9.72 8.75803C9.59 8.98803 9.4 9.22803 9.16 9.46803L8.4 10.258C8.29 10.368 8.24 10.498 8.24 10.658C8.24 10.738 8.25 10.808 8.27 10.888C8.3 10.968 8.33 11.028 8.35 11.088C8.53 11.418 8.84 11.848 9.28 12.368C9.73 12.888 10.21 13.418 10.73 13.948C11.27 14.478 11.79 14.968 12.32 15.418C12.84 15.858 13.27 16.158 13.61 16.338C13.66 16.358 13.72 16.388 13.79 16.418C13.87 16.448 13.95 16.458 14.04 16.458C14.21 16.458 14.34 16.398 14.45 16.288L15.21 15.538C15.46 15.288 15.7 15.098 15.93 14.978C16.16 14.838 16.39 14.768 16.64 14.768C16.83 14.768 17.03 14.808 17.25 14.898C17.47 14.988 17.7 15.118 17.95 15.288L21.26 17.638C21.52 17.818 21.7 18.028 21.81 18.278C21.91 18.528 21.97 18.778 21.97 19.058Z" fill="#373737"/>
</svg>
