<svg width="45" height="45" viewBox="0 0 45 45" fill="none" xmlns="http://www.w3.org/2000/svg">
<path d="M34.5837 27.563C34.5837 31.9613 31.9616 34.5834 27.5632 34.5834H26.1253C25.4607 34.5834 24.917 34.0397 24.917 33.3751V26.403C24.917 26.0768 25.1828 25.7988 25.5091 25.7988L27.6357 25.7626C27.8049 25.7505 27.9499 25.6297 27.9862 25.4605L28.4091 23.1526C28.4453 22.9351 28.2762 22.7297 28.0466 22.7297L25.4728 22.7659C25.1345 22.7659 24.8687 22.5001 24.8566 22.1738L24.8082 19.2134C24.8082 19.0201 24.9653 18.8509 25.1707 18.8509L28.0707 18.8026C28.2761 18.8026 28.4332 18.6455 28.4332 18.4401L28.3849 15.5401C28.3849 15.3347 28.2278 15.1776 28.0224 15.1776L24.7599 15.2259C22.7541 15.2622 21.1591 16.9055 21.1953 18.9113L21.2557 22.2342C21.2678 22.5726 21.002 22.8384 20.6637 22.8505L19.2137 22.8747C19.0082 22.8747 18.8512 23.0317 18.8512 23.2371L18.8874 25.533C18.8874 25.7384 19.0445 25.8955 19.2499 25.8955L20.6999 25.8713C21.0383 25.8713 21.3041 26.1372 21.3161 26.4634L21.4249 33.3509C21.437 34.0276 20.8932 34.5834 20.2166 34.5834H17.4374C13.0391 34.5834 10.417 31.9613 10.417 27.5509V17.4372C10.417 13.0388 13.0391 10.4167 17.4374 10.4167H27.5632C31.9616 10.4167 34.5837 13.0388 34.5837 17.4372V27.563Z" fill="black"/>
</svg>
