<svg width="18" height="18" viewBox="0 0 18 18" fill="none" xmlns="http://www.w3.org/2000/svg">
<path d="M16.875 5.46875V12.9062C16.875 15.5312 15.5625 17.2812 12.5 17.2812H5.5C2.4375 17.2812 1.125 15.5312 1.125 12.9062V5.46875C1.125 2.84375 2.4375 1.09375 5.5 1.09375H12.5C15.5625 1.09375 16.875 2.84375 16.875 5.46875Z" stroke="#686868" stroke-width="0.583333" stroke-miterlimit="10" stroke-linecap="round" stroke-linejoin="round"/>
<path d="M13.125 4.2215V13.8489C13.125 13.9553 13.0827 14.0573 13.0075 14.1326C12.9322 14.2078 12.8302 14.2501 12.7238 14.2501C12.6174 14.2501 12.5154 14.2078 12.4402 14.1326C12.3649 14.0573 12.3227 13.9553 12.3227 13.8489V11.0409H9.91582C9.85904 11.0404 9.803 11.028 9.75122 11.0047C9.69944 10.9814 9.65304 10.9477 9.61496 10.9055C9.57764 10.8635 9.54945 10.8141 9.53219 10.7606C9.51492 10.7071 9.50896 10.6506 9.51468 10.5947C9.63895 9.59037 9.83671 8.59655 10.1064 7.62119C10.7081 5.49513 11.5455 4.2215 12.5884 3.84543C12.6488 3.82253 12.7139 3.81475 12.778 3.82277C12.8422 3.83079 12.9033 3.85437 12.9562 3.89145C13.0091 3.92854 13.0522 3.978 13.0816 4.03553C13.111 4.09305 13.1259 4.1569 13.125 4.2215ZM8.90795 6.56317L8.50681 4.15632C8.49825 4.1043 8.47952 4.05447 8.45171 4.00969C8.42389 3.9649 8.38753 3.92604 8.34469 3.89531C8.30185 3.86458 8.25338 3.84258 8.20205 3.83058C8.15071 3.81859 8.09751 3.81682 8.04549 3.82538C7.94043 3.84266 7.84654 3.90098 7.78448 3.98749C7.72242 4.07401 7.69726 4.18163 7.71455 4.28669L8.04048 6.22722H7.10782V4.2215C7.10782 4.11511 7.06556 4.01308 6.99033 3.93785C6.9151 3.86263 6.81307 3.82036 6.70668 3.82036C6.60029 3.82036 6.49826 3.86263 6.42303 3.93785C6.3478 4.01308 6.30554 4.11511 6.30554 4.2215V6.22722H5.37288L5.69881 4.28669C5.70737 4.23467 5.7056 4.18147 5.6936 4.13014C5.6816 4.0788 5.65961 4.03033 5.62888 3.98749C5.59815 3.94466 5.55928 3.90829 5.51449 3.88048C5.46971 3.85266 5.41989 3.83394 5.36787 3.82538C5.31584 3.81682 5.26265 3.81859 5.21131 3.83058C5.15998 3.84258 5.1115 3.86458 5.06867 3.89531C5.02583 3.92604 4.98947 3.9649 4.96165 4.00969C4.93383 4.05447 4.91511 4.1043 4.90655 4.15632L4.50541 6.56317C4.50084 6.58458 4.49915 6.6065 4.50039 6.62836C4.50098 7.14394 4.6817 7.64311 5.01132 8.03957C5.34093 8.43603 5.79872 8.70484 6.30554 8.79954V13.8489C6.30554 13.9553 6.3478 14.0573 6.42303 14.1326C6.49826 14.2078 6.60029 14.2501 6.70668 14.2501C6.81307 14.2501 6.9151 14.2078 6.99033 14.1326C7.06556 14.0573 7.10782 13.9553 7.10782 13.8489V8.79954C7.61463 8.70484 8.07242 8.43603 8.40204 8.03957C8.73166 7.64311 8.91238 7.14394 8.91296 6.62836C8.91377 6.60817 8.91209 6.58796 8.90795 6.56819V6.56317Z" fill="#686868"/>
</svg>
