<svg width="64" height="64" viewBox="0 0 64 64" fill="none" xmlns="http://www.w3.org/2000/svg">
<path d="M14.9165 38.0082C15.0672 38.1582 15.2719 38.2414 15.4844 38.2403H48.2844C48.4969 38.2414 48.7015 38.1582 48.8522 38.0082L52.0522 34.8082C52.2833 34.5796 52.3526 34.2335 52.2279 33.9335C52.1033 33.6335 51.8094 33.4385 51.4844 33.4403H48.6844V31.8403C48.679 27.8557 47.2579 24.0028 44.6744 20.9694C42.0908 17.9359 38.5133 15.9195 34.5807 15.2801L34.8686 12.9279C34.9514 12.2433 34.7357 11.5561 34.276 11.0415C33.8168 10.5272 33.1581 10.2351 32.4685 10.2401H31.2685C30.5789 10.2351 29.9203 10.5272 29.461 11.0415C29.0017 11.5561 28.7856 12.2433 28.8685 12.9279L29.1563 15.2801H29.1567C25.2295 15.9262 21.6595 17.9458 19.0822 20.9783C16.505 24.0112 15.0882 27.8604 15.0843 31.84V33.44H12.2843C11.9593 33.4382 11.6653 33.6332 11.5407 33.9332C11.416 34.2332 11.4853 34.5793 11.7164 34.8079L14.9165 38.0082ZM30.4923 12.7364C30.4648 12.5082 30.5369 12.2789 30.6898 12.1075C30.843 11.936 31.0627 11.8385 31.2923 11.8403H32.4923C32.7223 11.8385 32.9419 11.936 33.0948 12.1075C33.248 12.2789 33.3201 12.5082 33.2923 12.7364L33.0123 15.1364C32.273 15.0642 31.528 15.0642 30.7884 15.1364L30.4923 12.7364ZM16.6848 31.8404C16.6848 27.8089 18.2862 23.9429 21.1369 21.093C23.9872 18.2422 27.8533 16.6408 31.8843 16.6408C35.9153 16.6408 39.7818 18.2423 42.6317 21.093C45.4825 23.9433 47.0838 27.8094 47.0838 31.8404V33.4404H16.6838L16.6848 31.8404ZM49.557 35.0404L47.957 36.6404H15.8125L14.2125 35.0404H49.557Z" fill="#7AC27C"/>
<path d="M23.8841 20.8324C21.2519 22.7467 19.3908 25.5385 18.6363 28.7042C18.5677 28.9167 18.5913 29.1478 18.7006 29.3424C18.8102 29.5367 18.9959 29.6763 19.2131 29.7281C19.4302 29.7796 19.6588 29.7378 19.8441 29.6135C20.0291 29.4889 20.1538 29.2928 20.188 29.0724C20.8534 26.2767 22.4998 23.8128 24.828 22.1281C25.1859 21.8678 25.2648 21.366 25.0041 21.0081C24.7434 20.6503 24.2419 20.5717 23.8841 20.8324Z" fill="#7AC27C"/>
<path d="M48.1957 40.6806C48.0603 40.4092 47.7828 40.2374 47.4796 40.2374C47.1761 40.2374 46.8989 40.4092 46.7636 40.6806L44.9314 44.3846L40.8436 44.9767C40.54 45.0181 40.2864 45.2292 40.1911 45.5203C40.0957 45.8117 40.1753 46.1317 40.3957 46.3446L43.3557 49.2324L42.6596 53.3046C42.6061 53.6053 42.7286 53.9103 42.975 54.0903C43.2218 54.2706 43.5493 54.2949 43.8196 54.1528L47.4835 52.2249L51.1396 54.1528C51.4099 54.2949 51.7374 54.2706 51.9839 54.0903C52.2307 53.9103 52.3528 53.6053 52.2996 53.3046L51.6035 49.2324L54.5635 46.3446C54.7839 46.1317 54.8632 45.8117 54.7678 45.5203C54.6724 45.2292 54.4192 45.0181 54.1157 44.9767L50.0278 44.3846L48.1957 40.6806ZM50.1796 48.3767C49.9921 48.5624 49.9082 48.8288 49.9557 49.0885L50.4517 51.9764L47.8835 50.6085C47.6507 50.4864 47.3725 50.4864 47.1396 50.6085L44.5395 51.9764L45.0356 49.0885C45.0828 48.8289 44.9992 48.5624 44.8113 48.3767L42.7074 46.3289L45.6113 45.905V45.9046C45.8699 45.8671 46.0938 45.706 46.2113 45.4728L47.5153 42.8407L48.7796 45.4407C48.8971 45.6739 49.121 45.8354 49.3796 45.8729L52.2835 46.2968L50.1796 48.3767Z" fill="#7AC27C"/>
<path d="M12.164 49.2329L11.468 53.305V53.3046C11.4148 53.6053 11.5369 53.9103 11.7837 54.0903C12.0301 54.2707 12.3576 54.295 12.628 54.1528L16.284 52.225L19.9479 54.1528C20.2183 54.295 20.5458 54.2707 20.7926 54.0903C21.039 53.9103 21.1615 53.6053 21.1079 53.3046L20.4118 49.2325L23.3718 46.3446C23.5922 46.1318 23.6718 45.8118 23.5765 45.5203C23.4811 45.2293 23.2276 45.0182 22.924 44.9768L18.8361 44.3846L17.004 40.6807C16.8686 40.4092 16.5915 40.2375 16.2879 40.2375C15.9847 40.2375 15.7072 40.4092 15.5719 40.6807L13.7401 44.3846L9.65222 44.9768H9.65186C9.34829 45.0182 9.09508 45.2293 8.99972 45.5203C8.90436 45.8118 8.98365 46.1318 9.20401 46.3446L12.164 49.2329ZM14.3879 45.905V45.9047C14.6465 45.8672 14.8704 45.7061 14.9879 45.4729L16.284 42.8407L17.588 45.4408C17.7055 45.674 17.9294 45.8354 18.188 45.8729L21.0919 46.2969L18.988 48.3447C18.8005 48.5308 18.7166 48.7968 18.7641 49.0568L19.2601 51.9447L16.684 50.6086C16.4512 50.4865 16.173 50.4865 15.9401 50.6086L13.3162 51.9769L13.8123 49.089L13.8119 49.0887C13.8594 48.829 13.7755 48.5626 13.588 48.3769L11.484 46.3287L14.3879 45.905Z" fill="#7AC27C"/>
<path d="M38.5238 44.9768L34.4277 44.3847L32.6038 40.6807C32.4703 40.4047 32.1906 40.2293 31.8838 40.2293C31.577 40.2293 31.2974 40.4047 31.1638 40.6807L29.3399 44.3847L25.2438 44.9768C24.9417 45.0208 24.6906 45.2329 24.597 45.5236C24.5035 45.8143 24.5838 46.1329 24.8038 46.3447L27.7638 49.2326L27.0838 53.3047C27.0281 53.6079 27.1513 53.9158 27.4006 54.0968C27.6499 54.2779 27.981 54.2997 28.2517 54.1529L31.8839 52.2247L35.5399 54.1526V54.1529C35.8088 54.2858 36.1299 54.2572 36.371 54.0783C36.612 53.8997 36.7331 53.6008 36.6838 53.3047L35.9799 49.2326L38.9399 46.3447C39.1588 46.1361 39.2417 45.8218 39.1538 45.5326C39.0656 45.2429 38.822 45.0279 38.5238 44.9768ZM34.5877 48.3769C34.3974 48.5612 34.3106 48.8276 34.3559 49.0887L34.852 51.9765L32.2598 50.6087C32.0248 50.4837 31.7427 50.4837 31.5077 50.6087L28.9155 51.9765L29.4116 49.0887C29.4569 48.8276 29.3701 48.5612 29.1798 48.3769L27.0837 46.3287L29.9877 45.9048C30.2491 45.8698 30.4766 45.7083 30.5959 45.473L31.8837 42.8408L33.1798 45.4409C33.2987 45.6762 33.5262 45.838 33.7877 45.873L36.6916 46.297L34.5877 48.3769Z" fill="#7AC27C"/>
</svg>
