<svg width="64" height="64" viewBox="0 0 64 64" fill="none" xmlns="http://www.w3.org/2000/svg">
<path d="M41.4575 29.3395H49.8279C50.239 29.3395 50.5725 29.0059 50.5725 28.5948V26.3762C50.5725 26.2287 50.5261 26.0816 50.4408 25.9573L46.81 20.682C46.6704 20.4802 46.4454 20.3637 46.1972 20.3637H41.4575C41.0465 20.3637 40.7129 20.6973 40.7129 21.1084V28.6023C40.7204 29.0059 41.0461 29.3395 41.4575 29.3395ZM42.2022 21.8455H45.8093L49.0908 26.6088V27.8577H42.2097L42.21 21.8455H42.2022Z" fill="#7B59FE"/>
<path d="M43.6297 31.4807H41.8843C41.4732 31.4807 41.1396 31.8143 41.1396 32.2254C41.1396 32.6365 41.4732 32.97 41.8843 32.97H43.6297C44.0407 32.97 44.3743 32.6365 44.3743 32.2254C44.3743 31.8143 44.0407 31.4807 43.6297 31.4807Z" fill="#7B59FE"/>
<path d="M19.6347 41.4254C18.4012 41.4254 17.4004 42.4261 17.4004 43.6597C17.4004 44.8934 18.4011 45.8941 19.6347 45.8941C20.8604 45.8941 21.8612 44.8934 21.8612 43.6597C21.8612 42.4261 20.8605 41.4254 19.6347 41.4254ZM19.6347 44.4043C19.2237 44.4043 18.8901 44.0708 18.8901 43.6597C18.8901 43.2486 19.2237 42.9151 19.6347 42.9151C20.0383 42.9151 20.3719 43.2486 20.3719 43.6597C20.3715 44.0708 20.0379 44.4043 19.6347 44.4043Z" fill="#7B59FE"/>
<path d="M48.33 41.4254C47.1043 41.4254 46.1035 42.4261 46.1035 43.6597C46.1035 44.8934 47.1042 45.8941 48.33 45.8941C49.5635 45.8941 50.5643 44.8934 50.5643 43.6597C50.564 42.4262 49.5558 41.4254 48.33 41.4254ZM48.33 44.4043C47.9264 44.4043 47.5928 44.0708 47.5928 43.6597C47.5928 43.2486 47.9264 42.9151 48.33 42.9151C48.7411 42.9151 49.0746 43.2486 49.0746 43.6597C49.0746 44.0708 48.7411 44.4043 48.33 44.4043Z" fill="#7B59FE"/>
<path d="M16.4458 21.2947H26.3055C26.7165 21.2947 27.0501 20.9611 27.0501 20.5501C27.0501 20.139 26.7165 19.8054 26.3055 19.8054L16.4458 19.8051C16.0347 19.8051 15.7012 20.1386 15.7012 20.5497C15.709 20.9611 16.0426 21.2947 16.4458 21.2947Z" fill="#7B59FE"/>
<path d="M19.542 23.9397C19.542 24.3508 19.8756 24.6843 20.2866 24.6843H30.1463C30.5574 24.6843 30.8909 24.3508 30.8909 23.9397C30.8909 23.5286 30.5574 23.1951 30.1463 23.1951L20.2866 23.1947C19.8756 23.1947 19.542 23.5283 19.542 23.9397Z" fill="#7B59FE"/>
<path d="M16.4458 28.075H26.3055C26.7165 28.075 27.0501 27.7415 27.0501 27.3304C27.0501 26.9193 26.7165 26.5858 26.3055 26.5858H16.4458C16.0347 26.5858 15.7012 26.9193 15.7012 27.3304C15.709 27.7493 16.0426 28.075 16.4458 28.075Z" fill="#7B59FE"/>
<path d="M30.139 29.9831H20.2866C19.8756 29.9831 19.542 30.3167 19.542 30.7278C19.542 31.1388 19.8756 31.4724 20.2866 31.4724H30.1463C30.5574 31.4724 30.8909 31.1388 30.8909 30.7278C30.8834 30.3167 30.5499 29.9831 30.1384 29.9831H30.139Z" fill="#7B59FE"/>
<path d="M56.4525 36.4371V36.406V29.2225C56.4525 29.075 56.4061 28.9278 56.3208 28.8035L48.7957 17.8815C48.6561 17.6797 48.4311 17.5633 48.1829 17.5633H39.1686V16.2443C39.1686 15.0497 38.199 14.08 37.0043 14.08H13.5218C12.11 14.08 10.9153 15.0886 10.6903 16.485L7.71102 34.6062C7.60244 35.2501 7.78852 35.9094 8.2153 36.4059C8.64209 36.9023 9.25493 37.1894 9.91422 37.1894H10.0149V42.2941C10.0149 43.4498 10.9614 44.3962 12.1171 44.3962H14.4831C14.8478 46.9173 17.0121 48.8569 19.6264 48.8569C22.2407 48.8569 24.3975 46.9098 24.7617 44.3962H27.221V45.6608C27.221 46.592 27.9813 47.3519 28.912 47.3519H39.0359C39.967 47.3519 40.727 46.5916 40.727 45.6608V44.3962H43.1862C43.5509 46.9173 45.7073 48.8569 48.3216 48.8569C50.9359 48.8569 53.1081 46.9098 53.4648 44.3962H54.3412C55.497 44.3962 56.4434 43.4497 56.4434 42.2941V36.4448C56.4523 36.4526 56.4523 36.4448 56.4523 36.4373L56.4525 36.4371ZM39.2457 45.6604C39.2457 45.769 39.1525 45.8622 39.0439 45.8622H28.9127C28.8041 45.8622 28.7109 45.769 28.7109 45.6604V44.3958H39.2453L39.2457 45.6604ZM47.7946 19.0446L54.9624 29.4556V35.716H39.1682V19.0449L47.7946 19.0446ZM9.348 35.4515C9.2005 35.2808 9.14621 35.0715 9.17728 34.8465L12.1483 16.7244C12.2569 16.0494 12.8308 15.5608 13.5137 15.5608H36.9963C37.3688 15.5608 37.6713 15.8633 37.6713 16.2358V18.028C37.6402 18.1133 37.617 18.1987 37.617 18.2994V35.7074H9.91411C9.68911 35.7074 9.49518 35.6142 9.34804 35.4513L9.348 35.4515ZM19.6346 47.3747C17.5868 47.3747 15.9189 45.7068 15.9189 43.6589C15.9189 41.611 17.5867 39.9432 19.6346 39.9432C21.6824 39.9432 23.3429 41.611 23.3429 43.6589C23.3429 45.7068 21.675 47.3747 19.6346 47.3747ZM48.3304 47.3747C46.2826 47.3747 44.6221 45.7068 44.6221 43.6589C44.6221 41.611 46.29 39.9432 48.3304 39.9432C50.3782 39.9432 52.0461 41.611 52.0461 43.6589C52.0461 45.7068 50.3783 47.3747 48.3304 47.3747ZM54.3501 42.9143H53.4736C53.109 40.4008 50.9447 38.4536 48.3304 38.4536C45.7161 38.4536 43.5593 40.4008 43.195 42.9143H24.7704C24.4057 40.4008 22.2414 38.4536 19.635 38.4536C17.0207 38.4536 14.8485 40.4008 14.4918 42.9143H12.1178C11.7764 42.9143 11.505 42.635 11.505 42.3015V37.1968H54.971V38.3914V38.4068V42.3011C54.971 42.6429 54.6917 42.9143 54.3503 42.9143L54.3501 42.9143Z" fill="#7B59FE"/>
</svg>
