<svg width="64" height="64" viewBox="0 0 64 64" fill="none" xmlns="http://www.w3.org/2000/svg">
<path d="M52.4798 14.0799C51.6313 14.0799 50.8173 14.4171 50.217 15.0171C49.617 15.6174 49.2798 16.4314 49.2798 17.2799C49.2823 17.8439 49.437 18.3967 49.7277 18.8799H44.9277L44.2398 13.0877C44.2238 12.9374 44.1623 12.7949 44.0638 12.6799L40.3038 7.98384L39.056 8.98389L42.672 13.4961L43.3038 18.88H39.6799C39.2381 18.88 38.8799 19.2382 38.8799 19.68C38.8799 29.8003 41.9838 37.856 46.0799 38.784V44.5362C43.592 44.8322 41.6799 46.4883 41.6799 48.4801C41.6799 48.6923 41.7642 48.8958 41.9142 49.0458C42.0642 49.1958 42.2677 49.2801 42.4799 49.2801H51.2799C51.492 49.2801 51.6956 49.1958 51.8456 49.0458C51.9956 48.8958 52.0799 48.6923 52.0799 48.4801C52.0799 46.488 50.1677 44.8323 47.6799 44.5362V38.784C51.776 37.8562 54.8799 29.8001 54.8799 19.68C54.8763 19.5954 54.8599 19.5118 54.832 19.4322C55.3895 18.8182 55.687 18.0122 55.662 17.1836C55.637 16.3546 55.2913 15.5679 54.6977 14.9889C54.1042 14.41 53.3091 14.0842 52.4798 14.0799ZM50.8798 17.2799C50.8798 16.8556 51.0484 16.4485 51.3484 16.1485C51.6484 15.8485 52.0556 15.6799 52.4798 15.6799C52.9041 15.6799 53.3113 15.8485 53.6113 16.1485C53.9113 16.4485 54.0798 16.8556 54.0798 17.2799C54.0798 17.7042 53.9113 18.1114 53.6113 18.4114C53.3113 18.7113 52.9041 18.8799 52.4798 18.8799C52.0556 18.8799 51.6484 18.7113 51.3484 18.4114C51.0484 18.1114 50.8798 17.7042 50.8798 17.2799ZM50.2638 47.6799H43.496C44.2742 46.6006 45.552 45.9964 46.8799 46.0799C48.2077 45.9964 49.4855 46.6006 50.2638 47.6799ZM46.8798 37.2799C43.9277 37.2799 40.6559 30.4239 40.4798 20.4799H43.4876L43.8637 23.6799H41.2798V25.2799H44.0558L45.2798 35.7759L46.8798 35.5838L45.6637 25.2798H52.4798V23.6798H45.4798L45.1037 20.4798H53.2798C53.1037 30.4236 49.832 37.2798 46.8798 37.2798V37.2799Z" fill="#FABE6E"/>
<path d="M25.2799 42.7199V49.696C18.8799 50.496 18.8799 51.9282 18.8799 52.4799C18.8799 55.5278 30.2079 55.6799 32.4799 55.6799C34.7519 55.6799 46.0799 55.5278 46.0799 52.4799C46.0799 51.9278 46.0799 50.4878 39.6799 49.696V42.7199C39.6674 41.6917 39.2477 40.71 38.5131 39.9903C37.7781 39.2707 36.7885 38.8714 35.7599 38.8799H35.232C35.5227 38.3967 35.6774 37.8439 35.6799 37.2799C35.676 36.5735 35.4381 35.8885 35.0042 35.3314C34.5699 34.7743 33.9638 34.3764 33.2799 34.2C33.5199 31.4322 35.2078 29.28 37.2799 29.28V27.68C34.376 27.68 31.9838 30.5361 31.6799 34.184C30.9935 34.3615 30.3853 34.7615 29.951 35.3218C29.5164 35.8822 29.2803 36.5711 29.2799 37.28C29.2824 37.844 29.4371 38.3968 29.7278 38.88H29.1999C28.1714 38.8715 27.1817 39.2707 26.4468 39.9904C25.7121 40.7101 25.2925 41.6918 25.2799 42.72L25.2799 42.7199ZM38.8799 53.2799C39.092 53.2799 39.2956 53.1956 39.4456 53.0456C39.5956 52.8956 39.6799 52.6921 39.6799 52.4799V51.3039C42.6077 51.68 43.912 52.1917 44.3521 52.4799C43.4481 53.096 39.4399 54.0799 32.4801 54.0799C25.5203 54.0799 21.5123 53.096 20.6081 52.4799C21.0481 52.1921 22.352 51.6799 25.2802 51.3039V52.4799C25.2802 52.6921 25.3645 52.8956 25.5145 53.0456C25.6645 53.1956 25.8681 53.2799 26.0802 53.2799H38.8799ZM38.0799 42.7199V51.6799H26.8799V42.7199C26.8924 42.116 27.1435 41.5413 27.5781 41.1218C28.0127 40.7021 28.5956 40.4714 29.1999 40.48H35.7599C36.3641 40.4714 36.947 40.7021 37.3816 41.1218C37.8163 41.5414 38.0674 42.116 38.0799 42.7199ZM30.8799 37.2799C30.8799 36.8556 31.0485 36.4485 31.3485 36.1485C31.6485 35.8485 32.0556 35.6799 32.4799 35.6799C32.9042 35.6799 33.3113 35.8485 33.6113 36.1485C33.9113 36.4485 34.0799 36.8556 34.0799 37.2799C34.0799 37.7042 33.9113 38.1114 33.6113 38.4114C33.3113 38.7114 32.9042 38.8799 32.4799 38.8799C32.0556 38.8799 31.6485 38.7114 31.3485 38.4114C31.0485 38.1114 30.8799 37.7042 30.8799 37.2799Z" fill="#FABE6E"/>
<path d="M7.67984 15.6799V17.2799H17.2076C17.2908 17.5392 17.339 17.8081 17.3519 18.0799V26.8799C17.3526 27.0417 17.3998 27.1999 17.4876 27.336L23.7598 36.4798H18.8798C18.438 36.4798 18.0798 36.838 18.0798 37.2798V41.2798H14.0798C13.6555 41.2798 13.2484 41.1112 12.9484 40.8112C12.6484 40.5112 12.4798 40.104 12.4798 39.6798H10.8798C10.8798 40.5283 11.2169 41.3423 11.8169 41.9426C12.4173 42.5426 13.2312 42.8798 14.0798 42.8798H18.0798V47.6798H9.2798C8.83801 47.6798 8.4798 48.038 8.4798 48.4798V55.6798H10.0798V49.2798H18.8798C19.0919 49.2798 19.2955 49.1955 19.4455 49.0455C19.5955 48.8955 19.6798 48.6919 19.6798 48.4798V38.0798H25.2798C25.5773 38.0794 25.8498 37.9137 25.9877 37.6501C26.1252 37.3865 26.1055 37.0683 25.9359 36.8237L18.9519 26.6321V18.08C18.9519 15.064 14.0798 7.68001 7.67969 7.68001V9.28001C11.7675 9.28001 15.0719 12.9278 16.5275 15.68H15.4957C14.5518 13.28 9.95964 10.08 7.67969 10.08V11.68C9.27969 11.68 12.5919 14.16 13.7036 15.68H12.2236C11.3918 14.2239 8.7675 12.48 7.67969 12.48V14.08C8.62972 14.4114 9.4897 14.9589 10.1919 15.68L7.67984 15.6799Z" fill="#FABE6E"/>
<path d="M11.6797 27.6799C12.7404 27.6799 13.7579 27.2585 14.5083 26.5085C15.2583 25.7582 15.6797 24.7407 15.6797 23.6799H14.0797C14.0797 24.5374 13.6222 25.3296 12.8797 25.7585C12.1372 26.187 11.2222 26.187 10.4797 25.7585C9.73719 25.3295 9.27969 24.5374 9.27969 23.6799H7.67969C7.67969 24.7407 8.10112 25.7581 8.85107 26.5085C9.60142 27.2585 10.6189 27.6799 11.6797 27.6799Z" fill="#FABE6E"/>
</svg>
