<svg width="17" height="17" viewBox="0 0 17 17" fill="none" xmlns="http://www.w3.org/2000/svg">
<path d="M8.49902 14.344C8.49902 14.344 1.8584 10.6252 1.8584 6.10949C1.8584 5.3112 2.13498 4.53757 2.64108 3.92022C3.14718 3.30287 3.85153 2.87993 4.63431 2.72337C5.41709 2.56682 6.22993 2.68631 6.93454 3.06151C7.63914 3.43672 8.19199 4.04446 8.49902 4.78135C8.80605 4.04446 9.3589 3.43672 10.0635 3.06151C10.7681 2.68631 11.581 2.56682 12.3637 2.72337C13.1465 2.87993 13.8509 3.30287 14.357 3.92022C14.8631 4.53757 15.1396 5.3112 15.1396 6.10949C15.1396 10.6252 8.49902 14.344 8.49902 14.344Z" stroke="white" stroke-width="1.275" stroke-linecap="round" stroke-linejoin="round"/>
</svg>
