<svg width="46" height="45" viewBox="0 0 46 45" fill="none" xmlns="http://www.w3.org/2000/svg">
<g clip-path="url(#clip0_128_812)">
<path d="M22.8083 26.3716C25.0739 26.3716 26.9105 24.535 26.9105 22.2694C26.9105 20.0038 25.0739 18.1671 22.8083 18.1671C20.5427 18.1671 18.7061 20.0038 18.7061 22.2694C18.7061 24.535 20.5427 26.3716 22.8083 26.3716Z" fill="#686868"/>
<path d="M28.4494 9.45007H17.1682C15.2642 9.45007 13.4382 10.2064 12.0919 11.5527C10.7456 12.899 9.98926 14.725 9.98926 16.629V27.9102C9.98926 29.8141 10.7456 31.6401 12.0919 32.9864C13.4382 34.3327 15.2642 35.0891 17.1682 35.0891H28.4494C30.3533 35.0891 32.1793 34.3327 33.5256 32.9864C34.8719 31.6401 35.6283 29.8141 35.6283 27.9102V16.629C35.6283 14.725 34.8719 12.899 33.5256 11.5527C32.1793 10.2064 30.3533 9.45007 28.4494 9.45007ZM22.8088 28.423C21.5917 28.423 20.4021 28.0621 19.3901 27.3859C18.3782 26.7098 17.5895 25.7488 17.1238 24.6244C16.6581 23.5 16.5362 22.2628 16.7736 21.0691C17.0111 19.8755 17.5971 18.7791 18.4577 17.9185C19.3182 17.0579 20.4147 16.4719 21.6083 16.2345C22.8019 15.997 24.0392 16.1189 25.1636 16.5846C26.2879 17.0504 27.249 17.839 27.9251 18.851C28.6012 19.8629 28.9621 21.0526 28.9621 22.2696C28.9621 23.9016 28.3138 25.4667 27.1599 26.6207C26.0059 27.7747 24.4407 28.423 22.8088 28.423ZM29.4749 17.1418C29.1707 17.1418 28.8732 17.0516 28.6203 16.8825C28.3673 16.7135 28.1701 16.4732 28.0537 16.1921C27.9372 15.911 27.9068 15.6017 27.9661 15.3033C28.0255 15.0049 28.172 14.7308 28.3871 14.5157C28.6023 14.3005 28.8764 14.154 29.1748 14.0947C29.4732 14.0353 29.7825 14.0658 30.0636 14.1822C30.3447 14.2986 30.585 14.4958 30.754 14.7488C30.923 15.0018 31.0133 15.2992 31.0133 15.6034C31.0133 16.0114 30.8512 16.4027 30.5627 16.6912C30.2742 16.9797 29.8829 17.1418 29.4749 17.1418Z" fill="#686868"/>
</g>
<defs>
<clipPath id="clip0_128_812">
<rect width="32.818" height="32.818" fill="white" transform="translate(6.39941 5.86023)"/>
</clipPath>
</defs>
</svg>
