<svg width="46" height="45" viewBox="0 0 46 45" fill="none" xmlns="http://www.w3.org/2000/svg">
<g clip-path="url(#clip0_73_490)">
<path d="M22.8083 26.3717C25.0739 26.3717 26.9105 24.5351 26.9105 22.2695C26.9105 20.0039 25.0739 18.1672 22.8083 18.1672C20.5427 18.1672 18.7061 20.0039 18.7061 22.2695C18.7061 24.5351 20.5427 26.3717 22.8083 26.3717Z" fill="#201F1E"/>
<path d="M28.4494 9.4502H17.1682C15.2642 9.4502 13.4382 10.2065 12.0919 11.5529C10.7456 12.8992 9.98926 14.7252 9.98926 16.6291V27.9103C9.98926 29.8143 10.7456 31.6403 12.0919 32.9866C13.4382 34.3329 15.2642 35.0892 17.1682 35.0892H28.4494C30.3533 35.0892 32.1793 34.3329 33.5256 32.9866C34.8719 31.6403 35.6283 29.8143 35.6283 27.9103V16.6291C35.6283 14.7252 34.8719 12.8992 33.5256 11.5529C32.1793 10.2065 30.3533 9.4502 28.4494 9.4502ZM22.8088 28.4231C21.5917 28.4231 20.4021 28.0622 19.3901 27.386C18.3782 26.7099 17.5895 25.7489 17.1238 24.6245C16.6581 23.5001 16.5362 22.2629 16.7736 21.0692C17.0111 19.8756 17.5971 18.7792 18.4577 17.9186C19.3182 17.0581 20.4147 16.472 21.6083 16.2346C22.8019 15.9971 24.0392 16.119 25.1636 16.5847C26.2879 17.0505 27.249 17.8392 27.9251 18.8511C28.6012 19.863 28.9621 21.0527 28.9621 22.2697C28.9621 23.9017 28.3138 25.4668 27.1599 26.6208C26.0059 27.7748 24.4407 28.4231 22.8088 28.4231ZM29.4749 17.1419C29.1707 17.1419 28.8732 17.0517 28.6203 16.8826C28.3673 16.7136 28.1701 16.4734 28.0537 16.1923C27.9372 15.9112 27.9068 15.6019 27.9661 15.3034C28.0255 15.005 28.172 14.7309 28.3871 14.5158C28.6023 14.3006 28.8764 14.1541 29.1748 14.0948C29.4732 14.0354 29.7825 14.0659 30.0636 14.1823C30.3447 14.2988 30.585 14.4959 30.754 14.7489C30.923 15.0019 31.0133 15.2993 31.0133 15.6036C31.0133 16.0116 30.8512 16.4028 30.5627 16.6913C30.2742 16.9798 29.8829 17.1419 29.4749 17.1419Z" fill="#201F1E"/>
</g>
<defs>
<clipPath id="clip0_73_490">
<rect width="32.818" height="32.818" fill="white" transform="translate(6.39941 5.86035)"/>
</clipPath>
</defs>
</svg>
