<svg width="124" height="38" viewBox="0 0 124 38" fill="none" xmlns="http://www.w3.org/2000/svg">
<path d="M0.0527344 21.4345V0.925095H3.94828L8.67985 9.7123C9.83606 11.8468 10.9923 14.3194 11.8461 16.4717L11.9172 16.4539C11.686 13.7501 11.5793 10.9575 11.5793 7.6667V0.925095H14.87V21.4345H11.2591L6.47415 12.505C5.33573 10.3705 4.10837 7.88015 3.21898 5.6033L3.13004 5.62109C3.27234 8.20033 3.34349 10.9575 3.34349 14.5862V21.4345H0.0527344Z" fill="#F42020"/>
<path d="M30.933 13.9103C30.933 19.5135 27.3398 21.737 24.0135 21.737C20.1535 21.737 17.2363 18.9265 17.2363 14.106C17.2363 9.10756 20.2603 6.29707 24.227 6.29707C28.247 6.31486 30.933 9.30323 30.933 13.9103ZM20.9006 14.0348C20.9006 16.7741 22.0213 19.0866 24.1202 19.0866C26.1125 19.0866 27.2687 16.7563 27.2687 13.9992C27.2687 11.7224 26.4327 8.96525 24.1202 8.96525C21.7722 8.96525 20.9006 11.6512 20.9006 14.0348Z" fill="#F42020"/>
<path d="M46.1244 13.9102C46.1244 19.5134 42.5312 21.7369 39.2049 21.7369C35.3449 21.7369 32.4277 18.9264 32.4277 14.1059C32.4277 9.10747 35.4517 6.29698 39.4184 6.29698C43.4206 6.31477 46.1244 9.30314 46.1244 13.9102ZM36.092 14.0347C36.092 16.774 37.2127 19.0865 39.3116 19.0865C41.3039 19.0865 42.4601 16.7563 42.4601 13.9991C42.4601 11.7223 41.6241 8.96516 39.3116 8.96516C36.9459 8.96516 36.092 11.6511 36.092 14.0347Z" fill="#F42020"/>
<path d="M48.4019 11.2065C48.4019 9.40989 48.3485 7.91571 48.2773 6.6172H51.408L51.5503 9.2498H51.657C52.333 7.3465 53.9161 6.29701 55.3925 6.29701C55.7483 6.29701 55.9439 6.3148 56.2107 6.36817V9.81901C55.9261 9.76565 55.6415 9.73007 55.2324 9.73007C53.6493 9.73007 52.4397 10.8151 52.1017 12.4694C52.0306 12.8074 51.995 13.2343 51.995 13.679V21.3989H48.4019V11.2065Z" fill="#F42020"/>
<path d="M55.126 34.224C56.1755 34.1173 56.7802 34.0106 57.3495 33.3702C58.0076 32.6409 58.2389 31.4847 58.2389 28.4785V6.29706H61.832V29.4391C61.832 32.552 61.245 34.3485 59.9465 35.5937C58.7369 36.7143 56.798 37.1946 55.1438 37.2124L55.126 34.224ZM62.0277 2.54382C62.0277 3.64667 61.245 4.51827 59.9999 4.51827C58.8259 4.51827 58.0432 3.64667 58.0432 2.54382C58.0432 1.40539 58.8614 0.551575 60.0532 0.551575C61.245 0.569363 62.0099 1.40539 62.0277 2.54382Z" fill="#F42020"/>
<path d="M73.7307 21.4345L73.4995 19.8336H73.4105C72.5567 20.9898 71.1515 21.7547 69.4083 21.7547C66.6689 21.7547 65.0146 19.7091 65.0146 17.3611C65.0146 13.6079 68.3054 11.7935 73.1437 11.7935V11.4911C73.1437 10.3527 72.699 8.89407 70.3688 8.89407C69.0347 8.89407 67.7006 9.32098 66.7579 9.90798L66.0463 7.54219C67.0425 6.91962 68.8568 6.29704 71.0269 6.29704C75.4917 6.29704 76.7369 9.17868 76.7369 12.3983V17.9125C76.7369 19.1933 76.7902 20.4918 76.9503 21.4167H73.7307V21.4345ZM73.2326 14.1237C71.0092 14.1059 68.5544 14.604 68.5544 16.952C68.5544 18.464 69.4794 19.1221 70.5289 19.1221C71.8274 19.1221 72.8057 18.2861 73.1437 17.1832C73.2149 16.9342 73.2326 16.6496 73.2326 16.3828V14.1237Z" fill="#F42020"/>
<path d="M80.0986 0.000137329H83.8874V8.50274H83.9586C84.4033 7.86238 85.0081 7.32874 85.7374 6.93741C86.4489 6.54607 87.3205 6.31483 88.2455 6.31483C90.8425 6.31483 93.2083 8.07583 93.2083 12.5228V21.4345H89.4195V12.843C89.4195 10.8507 88.7435 9.26762 86.7869 9.26762C85.435 9.26762 84.4744 10.1214 84.0653 11.2954C83.9586 11.5978 83.9052 12.0247 83.9052 12.4161V21.4345H80.1164V0.000137329H80.0986Z" fill="#F42020"/>
<path d="M104.718 21.4345L104.487 19.8336H104.398C103.544 20.9898 102.139 21.7547 100.396 21.7547C97.6562 21.7547 96.002 19.7091 96.002 17.3611C96.002 13.6079 99.2927 11.7935 104.131 11.7935V11.4911C104.131 10.3527 103.686 8.89407 101.356 8.89407C100.022 8.89407 98.6879 9.32098 97.7452 9.90798L97.0336 7.54219C98.0298 6.91962 99.8441 6.29704 102.014 6.29704C106.479 6.29704 107.724 9.17868 107.724 12.3983V17.9125C107.724 19.1933 107.778 20.4918 107.938 21.4167H104.718V21.4345ZM104.238 14.1237C102.014 14.1059 99.5595 14.604 99.5595 16.952C99.5595 18.464 100.484 19.1221 101.534 19.1221C102.832 19.1221 103.811 18.2861 104.149 17.1832C104.22 16.9342 104.238 16.6496 104.238 16.3828V14.1237Z" fill="#F42020"/>
<path d="M111.372 10.9574C111.372 9.24979 111.318 7.9157 111.247 6.61718H114.378L114.556 8.69836H114.627C115.303 7.54215 116.797 6.31479 118.985 6.31479C121.528 6.31479 123.805 8.058 123.805 12.3627V21.4345H120.212V12.7718C120.212 10.8329 119.572 9.26758 117.722 9.26758C116.441 9.26758 115.498 10.1925 115.143 11.3488C115.036 11.6689 114.965 12.1314 114.965 12.5761V21.4167H111.372V10.9574Z" fill="#F42020"/>
<path d="M53.079 23.8358H0V32.3562H53.079V23.8358Z" fill="#17AD86"/>
<path d="M11.2598 30.7375V25.668H12.2025V30.7375H11.2598Z" fill="white"/>
<path d="M13.5723 30.7375V25.668H14.3549L17.539 29.5813H17.1476V25.668H18.0904V30.7375H17.3077L14.1237 26.8242H14.515V30.7375H13.5723Z" fill="white"/>
<path d="M19.4414 30.7375V25.668H21.6649C22.2163 25.668 22.6966 25.7747 23.1057 25.9881C23.5148 26.2016 23.8528 26.504 24.084 26.8775C24.3153 27.2511 24.4398 27.6958 24.4398 28.2116C24.4398 28.7275 24.3153 29.1544 24.084 29.5457C23.8528 29.9193 23.5326 30.2217 23.1057 30.4351C22.6966 30.6486 22.1985 30.7553 21.6649 30.7553H19.4414V30.7375ZM20.3842 29.9371H21.6115C21.9851 29.9371 22.323 29.8659 22.6077 29.7236C22.8923 29.5813 23.1057 29.3678 23.248 29.1188C23.4081 28.852 23.4793 28.5496 23.4793 28.2116C23.4793 27.8559 23.4081 27.5535 23.248 27.2867C23.0879 27.0198 22.8745 26.8242 22.6077 26.6819C22.323 26.5396 22.0029 26.4684 21.6115 26.4684H20.3842V29.9371Z" fill="white"/>
<path d="M25.4365 30.7375V25.668H26.3793V30.7375H25.4365Z" fill="white"/>
<path d="M27.0205 30.7375L29.2974 25.668H30.2223L32.517 30.7375H31.5386L29.582 26.166H29.9555L27.9988 30.7375H27.0205ZM28.0878 29.5635L28.3368 28.8164H31.0761L31.3252 29.5635H28.0878Z" fill="white"/>
<path d="M33.1738 30.7375V25.668H33.9565L37.1405 29.5813H36.7492V25.668H37.6919V30.7375H36.9093L33.7253 26.8242H34.1166V30.7375H33.1738Z" fill="white"/>
<path d="M123.999 23.8358H64.6943V32.3562H123.999V23.8358Z" fill="#17AD86"/>
<path d="M68.0381 30.6664V25.5968H70.1193C70.564 25.5968 70.9553 25.668 71.2755 25.8103C71.5957 25.9526 71.8447 26.1661 72.0226 26.4329C72.2005 26.6997 72.2894 27.0199 72.2894 27.3934C72.2894 27.767 72.2005 28.0871 72.0226 28.354C71.8447 28.6208 71.5957 28.8342 71.2755 28.9765C70.9553 29.1188 70.564 29.19 70.1193 29.19H68.5539L68.9808 28.7631V30.6664H68.0381ZM68.9808 28.8698L68.5539 28.4251H70.0837C70.4928 28.4251 70.813 28.3362 71.0264 28.1583C71.2399 27.9804 71.3466 27.7314 71.3466 27.4112C71.3466 27.091 71.2399 26.842 71.0264 26.6641C70.813 26.4862 70.5106 26.3973 70.0837 26.3973H68.5539L68.9808 25.9348V28.8698ZM71.3466 30.6664L70.0659 28.8342H71.0798L72.3783 30.6664H71.3466Z" fill="white"/>
<path d="M74.265 29.8837H77.1289V30.6664H73.3223V25.5968H77.0221V26.3795H74.265V29.8837ZM74.1939 27.7136H76.7197V28.4963H74.1939V27.7136Z" fill="white"/>
<path d="M79.7598 30.7375C79.3685 30.7375 78.9772 30.6842 78.6214 30.5597C78.2656 30.4351 77.9632 30.2928 77.7676 30.115L78.0878 29.3857C78.2834 29.5457 78.5502 29.6703 78.8349 29.777C79.1372 29.8837 79.4396 29.9371 79.7598 29.9371C80.0266 29.9371 80.2401 29.9015 80.4002 29.8481C80.5603 29.7948 80.6848 29.7058 80.7559 29.6169C80.8271 29.528 80.8805 29.4034 80.8805 29.2789C80.8805 29.1188 80.8271 28.9943 80.7204 28.9054C80.6136 28.8164 80.4713 28.7275 80.2935 28.6741C80.1156 28.6208 79.9199 28.5674 79.7064 28.5141C79.493 28.4607 79.2795 28.4073 79.0661 28.3362C78.8526 28.265 78.657 28.1939 78.4791 28.0871C78.3012 27.9804 78.1589 27.8381 78.0522 27.678C77.9455 27.5179 77.8921 27.2867 77.8921 27.0199C77.8921 26.753 77.9632 26.4862 78.1055 26.255C78.2478 26.0237 78.4791 25.8459 78.7815 25.7036C79.0839 25.5613 79.4752 25.4901 79.9377 25.4901C80.2401 25.4901 80.5425 25.5257 80.8449 25.6146C81.1473 25.6858 81.4141 25.8103 81.6275 25.9526L81.3252 26.6819C81.0939 26.5396 80.8627 26.4507 80.6136 26.3795C80.3646 26.3084 80.1334 26.2728 79.9199 26.2728C79.6531 26.2728 79.4396 26.3083 79.2795 26.3617C79.1195 26.4329 78.9949 26.504 78.9238 26.6107C78.8526 26.7175 78.8171 26.8242 78.8171 26.9665C78.8171 27.1266 78.8704 27.2511 78.9772 27.34C79.0839 27.429 79.2262 27.5001 79.4041 27.5535C79.5819 27.6069 79.7776 27.6602 79.9911 27.7136C80.2045 27.767 80.418 27.8203 80.6314 27.8915C80.8449 27.9626 81.0405 28.0338 81.2184 28.1405C81.3963 28.2472 81.5386 28.3718 81.6453 28.5496C81.7521 28.7275 81.8054 28.941 81.8054 29.2078C81.8054 29.4746 81.7343 29.7236 81.592 29.9549C81.4497 30.1861 81.2184 30.364 80.916 30.5063C80.5959 30.6664 80.2223 30.7375 79.7598 30.7375Z" fill="white"/>
<path d="M83.7094 30.6664V26.3973H82.0195V25.5968H86.3242V26.3973H84.6344V30.6664H83.7094Z" fill="white"/>
<path d="M86.0742 30.6664L88.3511 25.5968H89.276L91.5707 30.6664H90.5923L88.6357 26.0949H89.0092L87.0526 30.6664H86.0742ZM87.1237 29.4924L87.3727 28.7453H90.1121L90.3611 29.4924H87.1237Z" fill="white"/>
<path d="M94.2928 30.7375C93.5991 30.7375 93.0477 30.5419 92.6563 30.1505C92.265 29.7592 92.0693 29.19 92.0693 28.4607V25.5968H93.0121V28.4251C93.0121 28.941 93.1188 29.3323 93.3501 29.5635C93.5813 29.7948 93.8837 29.9193 94.3106 29.9193C94.7197 29.9193 95.0399 29.7948 95.2534 29.5635C95.4668 29.3323 95.5913 28.941 95.5913 28.4251V25.5968H96.5163V28.4607C96.5163 29.2078 96.3206 29.7592 95.9293 30.1505C95.5202 30.5419 94.9865 30.7375 94.2928 30.7375Z" fill="white"/>
<path d="M97.832 30.6664V25.5968H99.9132C100.358 25.5968 100.749 25.668 101.069 25.8103C101.39 25.9526 101.639 26.1661 101.817 26.4329C101.994 26.6997 102.083 27.0199 102.083 27.3934C102.083 27.767 101.994 28.0871 101.817 28.354C101.639 28.6208 101.39 28.8342 101.069 28.9765C100.749 29.1188 100.358 29.19 99.9132 29.19H98.3479L98.7748 28.7631V30.6664H97.832ZM98.7748 28.8698L98.3479 28.4251H99.8776C100.287 28.4251 100.607 28.3362 100.82 28.1583C101.034 27.9804 101.141 27.7314 101.141 27.4112C101.141 27.091 101.034 26.842 100.82 26.6641C100.607 26.4862 100.305 26.3973 99.8776 26.3973H98.3479L98.7748 25.9348V28.8698ZM101.141 30.6664L99.8599 28.8342H100.874L102.172 30.6664H101.141Z" fill="white"/>
<path d="M102.404 30.6664L104.681 25.5968H105.606L107.901 30.6664H106.922L104.966 26.0949H105.339L103.383 30.6664H102.404ZM103.454 29.4924L103.703 28.7453H106.46L106.709 29.4924H103.454Z" fill="white"/>
<path d="M108.559 30.6664V25.5968H109.341L112.525 29.5102H112.134V25.5968H113.077V30.6664H112.294L109.11 26.7531H109.501V30.6664H108.559Z" fill="white"/>
<path d="M115.46 30.6664V26.3973H113.771V25.5968H118.075V26.3973H116.385V30.6664H115.46Z" fill="white"/>
<path d="M120.317 30.7375C119.926 30.7375 119.535 30.6842 119.179 30.5597C118.823 30.4351 118.521 30.2928 118.325 30.115L118.645 29.3857C118.841 29.5457 119.108 29.6703 119.392 29.777C119.695 29.8837 119.997 29.9371 120.317 29.9371C120.584 29.9371 120.798 29.9015 120.958 29.8481C121.118 29.7948 121.242 29.7058 121.314 29.6169C121.385 29.528 121.438 29.4034 121.438 29.2789C121.438 29.1188 121.385 28.9943 121.278 28.9054C121.171 28.8164 121.029 28.7275 120.851 28.6741C120.673 28.6208 120.478 28.5674 120.264 28.5141C120.051 28.4607 119.837 28.4073 119.624 28.3362C119.41 28.265 119.215 28.1939 119.037 28.0871C118.859 27.9804 118.717 27.8381 118.61 27.678C118.503 27.5179 118.45 27.2867 118.45 27.0199C118.45 26.753 118.521 26.4862 118.663 26.255C118.805 26.0237 119.037 25.8459 119.339 25.7036C119.642 25.5613 120.033 25.4901 120.495 25.4901C120.798 25.4901 121.1 25.5257 121.402 25.6146C121.705 25.6858 121.972 25.8103 122.185 25.9526L121.883 26.6819C121.652 26.5396 121.42 26.4507 121.171 26.3795C120.922 26.3084 120.691 26.2728 120.478 26.2728C120.211 26.2728 119.997 26.3083 119.837 26.3617C119.677 26.4329 119.553 26.504 119.481 26.6107C119.41 26.7175 119.375 26.8242 119.375 26.9665C119.375 27.1266 119.428 27.2511 119.535 27.34C119.641 27.429 119.784 27.5001 119.962 27.5535C120.14 27.6069 120.335 27.6602 120.549 27.7136C120.762 27.767 120.976 27.8203 121.189 27.8915C121.402 27.9626 121.598 28.0338 121.776 28.1405C121.954 28.2472 122.096 28.3718 122.203 28.5496C122.31 28.7275 122.363 28.941 122.363 29.2078C122.363 29.4746 122.292 29.7236 122.15 29.9549C122.007 30.1861 121.776 30.364 121.474 30.5063C121.171 30.6664 120.78 30.7375 120.317 30.7375Z" fill="white"/>
</svg>
