<svg width="18" height="22" viewBox="0 0 18 22" fill="none" xmlns="http://www.w3.org/2000/svg">
<path d="M9.21927 11.463C10.46 11.463 11.4659 10.4571 11.4659 9.21634C11.4659 7.97557 10.46 6.96973 9.21927 6.96973C7.9785 6.96973 6.97266 7.97557 6.97266 9.21634C6.97266 10.4571 7.9785 11.463 9.21927 11.463Z" stroke="#686868" stroke-width="1.12331" stroke-linecap="round" stroke-linejoin="round"/>
<path d="M14.8346 9.21658C14.8346 14.2715 9.2181 18.203 9.2181 18.203C9.2181 18.203 3.60156 14.2715 3.60156 9.21658C3.60156 7.72698 4.1933 6.29839 5.24661 5.24508C6.29992 4.19178 7.7285 3.60004 9.2181 3.60004C10.7077 3.60004 12.1363 4.19178 13.1896 5.24508C14.2429 6.29839 14.8346 7.72698 14.8346 9.21658Z" stroke="#686868" stroke-width="1.12331" stroke-linecap="round" stroke-linejoin="round"/>
</svg>
