<svg width="24" height="25" viewBox="0 0 24 25" fill="none" xmlns="http://www.w3.org/2000/svg">
<path d="M17 4.22803H7C4 4.22803 2 5.72803 2 9.22803V16.228C2 19.728 4 21.228 7 21.228H17C20 21.228 22 19.728 22 16.228V9.22803C22 5.72803 20 4.22803 17 4.22803ZM17.47 10.318L14.34 12.818C13.68 13.348 12.84 13.608 12 13.608C11.16 13.608 10.31 13.348 9.66 12.818L6.53 10.318C6.21 10.058 6.16 9.57803 6.41 9.25803C6.67 8.93803 7.14 8.87803 7.46 9.13803L10.59 11.638C11.35 12.248 12.64 12.248 13.4 11.638L16.53 9.13803C16.85 8.87803 17.33 8.92803 17.58 9.25803C17.84 9.57803 17.79 10.058 17.47 10.318Z" fill="#373737"/>
</svg>
