<svg width="45" height="45" viewBox="0 0 45 45" fill="none" xmlns="http://www.w3.org/2000/svg">
<g clip-path="url(#clip0_73_496)">
<circle cx="22.3459" cy="22.2683" r="13.1272" fill="#201F1E"/>
<path d="M29.43 18.6819L27.6157 20.5341C27.2552 24.8353 23.7107 28.1765 19.4753 28.1765C18.6042 28.1765 17.8833 28.035 17.3366 27.7581C16.8981 27.5304 16.7178 27.2904 16.6698 27.2166C16.63 27.1547 16.6044 27.0845 16.5948 27.0111C16.5852 26.9377 16.592 26.863 16.6145 26.7926C16.637 26.7222 16.6747 26.6579 16.7249 26.6046C16.775 26.5512 16.8363 26.5101 16.9041 26.4844C16.9161 26.4782 18.3339 25.9244 19.2531 24.8599C18.683 24.4442 18.182 23.9372 17.7692 23.3585C16.9461 22.2139 16.075 20.2264 16.5977 17.2605C16.6141 17.1723 16.6535 17.0903 16.7117 17.0232C16.7698 16.956 16.8446 16.9062 16.9281 16.879C17.0119 16.8509 17.1016 16.8469 17.1874 16.8676C17.2733 16.8882 17.3519 16.9326 17.4147 16.9959C17.4328 17.0205 19.4333 19.0388 21.8784 19.6911V19.3157C21.8808 18.9254 21.9582 18.5394 22.1062 18.1798C22.2542 17.8201 22.4699 17.4938 22.741 17.2195C23.0121 16.9453 23.3334 16.7284 23.6863 16.5813C24.0393 16.4342 24.4171 16.3597 24.7981 16.3621C25.2982 16.3694 25.788 16.5093 26.2197 16.7681C26.6513 17.0269 27.0102 17.3958 27.2613 17.8389H29.0876C29.1825 17.8386 29.2753 17.8671 29.3544 17.9207C29.4335 17.9744 29.4954 18.0508 29.5321 18.1404C29.5668 18.2314 29.5755 18.3305 29.5575 18.4263C29.5394 18.5221 29.4952 18.6108 29.43 18.6819Z" fill="white"/>
</g>
<defs>
<clipPath id="clip0_73_496">
<rect width="32.818" height="32.818" fill="white" transform="translate(5.9375 5.86035)"/>
</clipPath>
</defs>
</svg>
