<svg width="45" height="45" viewBox="0 0 45 45" fill="none" xmlns="http://www.w3.org/2000/svg">
<g clip-path="url(#clip0_128_818)">
<circle cx="22.3459" cy="22.2682" r="13.1272" fill="#686868"/>
<path d="M29.43 18.6818L27.6157 20.534C27.2552 24.8352 23.7107 28.1764 19.4753 28.1764C18.6042 28.1764 17.8833 28.0349 17.3366 27.758C16.8981 27.5303 16.7178 27.2903 16.6698 27.2165C16.63 27.1546 16.6044 27.0844 16.5948 27.011C16.5852 26.9376 16.592 26.8629 16.6145 26.7925C16.637 26.7221 16.6747 26.6578 16.7249 26.6045C16.775 26.5511 16.8363 26.51 16.9041 26.4843C16.9161 26.4781 18.3339 25.9243 19.2531 24.8598C18.683 24.444 18.182 23.9371 17.7692 23.3584C16.9461 22.2138 16.075 20.2263 16.5977 17.2604C16.6141 17.1722 16.6535 17.0902 16.7117 17.0231C16.7698 16.9559 16.8446 16.9061 16.9281 16.8789C17.0119 16.8508 17.1016 16.8468 17.1874 16.8675C17.2733 16.8881 17.3519 16.9325 17.4147 16.9958C17.4328 17.0204 19.4333 19.0387 21.8784 19.691V19.3156C21.8808 18.9253 21.9582 18.5393 22.1062 18.1797C22.2542 17.82 22.4699 17.4937 22.741 17.2194C23.0121 16.9452 23.3334 16.7283 23.6863 16.5812C24.0393 16.434 24.4171 16.3596 24.7981 16.362C25.2982 16.3693 25.788 16.5092 26.2197 16.768C26.6513 17.0268 27.0102 17.3957 27.2613 17.8388H29.0876C29.1825 17.8385 29.2753 17.867 29.3544 17.9206C29.4335 17.9743 29.4954 18.0507 29.5321 18.1403C29.5668 18.2313 29.5755 18.3304 29.5575 18.4262C29.5394 18.522 29.4952 18.6106 29.43 18.6818Z" fill="white"/>
</g>
<defs>
<clipPath id="clip0_128_818">
<rect width="32.818" height="32.818" fill="white" transform="translate(5.9375 5.86023)"/>
</clipPath>
</defs>
</svg>
